External Loads File
version=1
nRows=61
nColumns=13
Range=5.000000e-03-10 seconds
endheader
time 	forceRightX 	forceRightY 	forceRightZ 	pointRightX 	pointRightY 	pointRightZ 	forceLeftX 	forceLeftY 	forceLeftZ 	pointLeftX 	pointLeftY 	pointLeftZ 		
2.505000 92.444114 622.695173 -0.000000 0.322036 0.418363 -0.120395 23.499948 -120.571622 -0.000000 0.076491 0.207046 -0.359116
2.510000 92.648958 641.711149 -0.000000 0.325591 0.412697 -0.120699 30.587420 -104.094341 -0.000000 0.072164 0.212769 -0.359273
2.515000 90.465434 659.489847 -0.000000 0.328927 0.407004 -0.120913 36.353717 -90.772910 -0.000000 0.068362 0.218577 -0.359279
2.520000 86.866673 676.358975 -0.000000 0.332088 0.401014 -0.121057 40.512004 -80.536365 -0.000000 0.064926 0.224540 -0.359330
2.525000 82.348424 692.808387 -0.000000 0.335268 0.394731 -0.121133 43.114625 -73.274199 -0.000000 0.061847 0.230648 -0.359309
2.530000 77.467946 709.366713 -0.000000 0.337971 0.387825 -0.120953 44.342143 -68.814741 -0.000000 0.059176 0.236991 -0.359337
2.535000 71.286746 726.672579 -0.000000 0.340351 0.381143 -0.120807 44.524876 -66.796075 -0.000000 0.056864 0.243581 -0.359220
2.540000 65.790115 744.928224 -0.000000 0.342551 0.373972 -0.120574 43.660640 -66.918917 -0.000000 0.054837 0.250334 -0.359171
2.545000 60.314379 764.448122 -0.000000 0.344404 0.366773 -0.120256 41.964179 -68.586815 -0.000000 0.053182 0.257288 -0.358964
2.550000 55.289026 785.284680 -0.000000 0.346158 0.359297 -0.120084 39.581253 -71.169585 -0.000000 0.051817 0.264111 -0.358801
2.555000 50.213052 807.450543 -0.000000 0.347319 0.351992 -0.120267 36.837252 -73.980758 -0.000000 0.050857 0.271159 -0.358732
2.560000 45.049677 830.863016 -0.000000 0.348144 0.344675 -0.120354 34.111899 -76.469668 -0.000000 0.050211 0.278118 -0.358695
2.565000 42.451566 855.302298 -0.000000 0.348766 0.336495 -0.120671 31.546750 -78.367005 -0.000000 0.049890 0.285109 -0.358845
2.570000 36.604672 880.979875 -0.000000 0.349256 0.329508 -0.120894 29.964557 -79.264406 -0.000000 0.049866 0.292109 -0.359010
2.575000 34.264816 907.499760 -0.000000 0.349519 0.321401 -0.121313 28.911523 -79.350417 -0.000000 0.050171 0.299194 -0.359272
2.580000 29.496399 934.997057 -0.000000 0.349522 0.314095 -0.121507 28.960900 -78.462072 -0.000000 0.050815 0.306215 -0.359589
2.585000 28.364729 963.140949 -0.000000 0.349230 0.305849 -0.121605 29.540936 -76.892659 -0.000000 0.051770 0.313310 -0.359977
2.590000 26.773931 991.948009 -0.000000 0.348611 0.297975 -0.121494 30.828670 -74.666748 -0.000000 0.053060 0.320375 -0.360406
2.595000 24.592360 1021.303509 -0.000000 0.347483 0.290649 -0.121506 32.533221 -71.958871 -0.000000 0.054539 0.327471 -0.360841
2.600000 24.188733 1051.024539 -0.000000 0.346471 0.283146 -0.121235 34.146552 -69.043131 -0.000000 0.056588 0.334514 -0.361274
2.605000 26.593712 1080.926901 -0.000000 0.345493 0.275257 -0.120517 35.328693 -66.202874 -0.000000 0.058947 0.341541 -0.361443
2.610000 35.246812 1110.695441 -0.000000 0.342881 0.267446 -0.121245 35.655971 -63.872165 -0.000000 0.061610 0.349414 -0.361559
2.615000 42.158288 1140.315499 -0.000000 0.340539 0.259335 -0.120958 35.310338 -62.124881 -0.000000 0.064606 0.355987 -0.361685
2.620000 52.725389 1169.371631 -0.000000 0.338064 0.251254 -0.120824 33.582471 -61.338804 -0.000000 0.067953 0.362951 -0.361834
2.625000 64.489405 1197.687713 -0.000000 0.335196 0.243531 -0.120685 30.178724 -61.434753 -0.000000 0.071772 0.369804 -0.362086
2.630000 78.652959 1224.903862 -0.000000 0.331933 0.235748 -0.120011 24.703181 -62.268743 -0.000000 0.075745 0.376599 -0.362396
2.635000 91.476689 1250.934819 -0.000000 0.328649 0.228295 -0.120293 17.221908 -63.531712 -0.000000 0.079856 0.383009 -0.361021
2.640000 106.954757 1275.169402 -0.000000 0.324805 0.221047 -0.120291 7.656070 -65.119520 -0.000000 0.084640 0.389313 -0.361022
2.645000 124.310871 1297.273332 -0.000000 0.320635 0.213912 -0.120381 -3.635914 -66.945143 -0.000000 0.089901 0.395451 -0.361335
2.650000 144.065464 1316.784059 -0.000000 0.316222 0.206961 -0.120245 -16.274123 -69.043084 -0.000000 0.095378 0.401948 -0.361377
2.655000 162.877318 1333.624710 -0.000000 0.311455 0.200228 -0.120062 -29.682605 -71.564667 -0.000000 0.101127 0.407752 -0.361394
2.660000 182.422974 1347.121725 -0.000000 0.306432 0.193682 -0.119907 -43.608461 -74.611510 -0.000000 0.107136 0.413435 -0.361346
2.665000 201.501599 1356.824409 -0.000000 0.301469 0.187402 -0.119645 -57.722311 -78.234548 -0.000000 0.113381 0.419105 -0.361306
2.670000 220.875007 1361.905580 -0.000000 0.296187 0.181452 -0.119560 -71.851407 -82.267818 -0.000000 0.119774 0.424808 -0.361174
2.675000 240.790710 1361.475339 -0.000000 0.290490 0.175779 -0.119465 -85.802404 -86.422513 -0.000000 0.126433 0.430326 -0.361181
2.680000 263.858536 1354.058309 -0.000000 0.283442 0.170094 -0.119302 -99.523769 -90.228983 -0.000000 0.133072 0.435497 -0.361013
2.685000 283.135098 1339.887894 -0.000000 0.277202 0.165398 -0.119200 -112.327279 -94.032669 -0.000000 0.140682 0.440165 -0.362564
2.690000 298.099037 1318.094005 -0.000000 0.270876 0.160867 -0.119082 -123.951255 -97.972790 -0.000000 0.147711 0.444844 -0.362456
2.695000 310.102127 1287.395925 -0.000000 0.264422 0.156541 -0.119716 -134.360721 -101.963583 -0.000000 0.154765 0.449330 -0.362131
2.700000 316.434673 1247.680142 -0.000000 0.258218 0.152490 -0.119487 -143.281668 -106.133868 -0.000000 0.161729 0.453407 -0.361252
2.705000 320.613521 1197.644131 -0.000000 0.251754 0.148909 -0.119464 -150.987196 -109.769667 -0.000000 0.168824 0.458102 -0.361010
2.710000 320.142775 1137.812558 -0.000000 0.245186 0.145988 -0.119448 -157.272283 -112.784287 -0.000000 0.176011 0.461851 -0.361224
2.715000 315.681153 1068.254341 -0.000000 0.238793 0.142733 -0.119492 -162.201166 -114.822803 -0.000000 0.183364 0.465109 -0.361522
2.720000 306.335691 989.862059 -0.000000 0.232431 0.139877 -0.119565 -165.673445 -115.919805 -0.000000 0.190524 0.468113 -0.362043
2.725000 293.371749 903.269174 -0.000000 0.226259 0.137981 -0.119535 -167.832082 -115.948807 -0.000000 0.198029 0.470639 -0.362392
2.730000 276.161369 810.045487 -0.000000 0.220360 0.134864 -0.119230 -168.619170 -115.210593 -0.000000 0.205403 0.472884 -0.362545
2.735000 257.381276 710.947926 -0.000000 0.213831 0.133349 -0.119409 -168.457560 -113.349991 -0.000000 0.212869 0.474865 -0.362753
2.740000 235.679365 608.328298 -0.000000 0.207545 0.132077 -0.119041 -167.226101 -110.794991 -0.000000 0.220457 0.476498 -0.362951
2.745000 211.653000 504.046072 -0.000000 0.201496 0.132461 -0.118809 -165.051454 -107.583321 -0.000000 0.227957 0.477858 -0.363063
2.750000 186.593407 399.692955 -0.000000 0.195307 0.131981 -0.118865 -162.173603 -103.491556 -0.000000 0.235390 0.478734 -0.363261
2.755000 161.458602 296.907294 -0.000000 0.189009 0.132035 -0.118595 -158.732737 -98.337023 -0.000000 0.242821 0.479399 -0.363387
2.760000 137.074512 197.265125 -0.000000 0.182599 0.132702 -0.118504 -154.796744 -92.042053 -0.000000 0.250196 0.479508 -0.363496
2.765000 114.086559 102.244679 -0.000000 0.176165 0.133910 -0.118429 -150.384703 -84.728109 -0.000000 0.257466 0.479247 -0.363588
2.770000 93.075824 12.874734 -0.000000 0.169378 0.135457 -0.118421 -145.725339 -76.251163 -0.000000 0.264808 0.477993 -0.364050
2.775000 73.914762 -69.627791 -0.000000 0.162367 0.137825 -0.118442 -140.779659 -66.901983 -0.000000 0.271879 0.476819 -0.364233
2.780000 56.115104 -144.456703 -0.000000 0.154880 0.140852 -0.118904 -135.743830 -56.309361 -0.000000 0.278985 0.475162 -0.364481
2.785000 39.235162 -210.467933 -0.000000 0.147472 0.144519 -0.119045 -130.469575 -44.596655 -0.000000 0.285786 0.473180 -0.364638
2.790000 23.024043 -266.694237 -0.000000 0.140630 0.148288 -0.119349 -124.887082 -31.706990 -0.000000 0.292380 0.470520 -0.364696
2.795000 7.793990 -312.443293 -0.000000 0.134330 0.151855 -0.119777 -118.971407 -17.722299 -0.000000 0.298496 0.467754 -0.364877
2.800000 -6.773334 -347.587330 -0.000000 0.128440 0.155660 -0.120114 -112.875207 -2.332319 -0.000000 0.304295 0.464366 -0.365159
2.805000 -20.315688 -372.563833 -0.000000 0.122669 0.159943 -0.120576 -106.731200 14.647754 -0.000000 0.309614 0.460671 -0.365322
